<svg width="100" height="100" viewBox="0 0 100 100" xmlns="http://www.w3.org/2000/svg">
<path id="logoJS" fill="#ffe70b" d="M0 0v100h100V0H0zm55 74.5C55 83 50.6 90 40.8 90c-6.7 0-11.2-2.6-14.3-8l6.8-5c1.6 3 3.9 4.4 6.2 4.4 3.6 0 5.5-1.8 5.5-7.7V45h10v29.5zM75.8 90c-5.8 0-11.9-2.2-16.4-6.4l5.7-6.8c3.2 2.7 7.3 4.6 11 4.6 4.2 0 6.2-1.6 6.2-4.3 0-2.8-2.5-3.7-6.4-5.3L70 69.4c-4.6-1.8-8.9-5.6-8.9-12.1 0-7.3 6.5-13.1 15.8-13.1 5.1 0 10.5 2 14.3 5.8l-5.1 6.3c-2.9-2.2-5.6-3.5-9.2-3.5-3.5 0-5.6 1.5-5.6 4 0 2.7 2.9 3.7 6.7 5.2l5.7 2.3c5.4 2.2 8.8 5.8 8.8 12 0 7.3-6.1 13.7-16.7 13.7z"></path>
</svg>